<svg version="1" xmlns="http://www.w3.org/2000/svg" width="200" height="200" viewBox="0 0 150.000000 150.000000"><path d="M134.8 38c-1 .6-1.4 1.8-1.1 3 .4 1.6.9 1.8 2.4.9 1-.5 1.9-1.9 1.9-2.9 0-2.2-.7-2.4-3.2-1zM138.7 45.7c-.4.3-.7 1.6-.7 2.8 0 1.4-.9 2.6-2.5 3.3-2.1 1-2.5.9-2.5-.3 0-2.4-1.8-1.7-2.3.7l-.4 2.3-.2-2.3c0-1.2-.5-2.2-1-2.2-1.8 0-4.1 3.1-4.1 5.5 0 1.5-.7 2.6-2 3-1.4.4-2 1.5-2 3.5 0 1.6-.7 3-1.6 3.4-2.3.9-2.4.8-2.4-1.4 0-3.8-4.6-1.1-5.2 2.9-.6 4.6-2.8 3.6-2.8-1.3 0-2.5-.3-4.6-.6-4.6-2 0-4.4 2.4-4.4 4.5 0 1.4-.8 2.9-2 3.5-1.9 1-2 .8-2-4.1 0-4.2-.3-5-1.6-4.5-.9.3-1.8.6-2 .6-.2 0-.4 3.6-.4 8 0 6.9-.3 8.1-2 9-1.8.9-2 .8-2-1.5V74l-4 2-4 2v-2c0-2.1-.8-2.4-3.4-1.4-.9.4-1.6 1.8-1.6 3.4 0 1.6-.7 3-1.6 3.4-2.3.9-2.4.8-2.4-1.4 0-1-.9-2.4-2-3-1.7-.9-2-.8-2 1 0 2.5-1.4 2.5-5.6-.1-2.3-1.4-3.1-2.5-2.7-3.6.4-.9-.1-2.1-1.2-2.9-2.6-1.9-3.5-1.7-3.5.7 0 1.6-.4 1.9-2 1.4s-2-.2-2 1.5c0 1.6-.4 2-1.6 1.6-.9-.3-1.8-.6-2-.6-.2 0-.4-1.4-.4-3 0-1.7-.2-3-.4-3s-1.1-.3-2-.6c-1.2-.4-1.6 0-1.6 1.5 0 2.4-.9 2.6-3.3.8-1-.7-1.7-3-1.9-6.1-.2-2.8-.8-5.1-1.5-5.4-.8-.2-1.3.5-1.3 1.7 0 2.4-.4 2.5-3.1 1.1-1.5-.9-1.9-2.2-1.9-6.4 0-5-.9-6.6-3.6-6.6-.2 0-.4 3.4-.4 7.5 0 7.3-.1 7.5-2.1 6.5-1.9-1.1-2-.9-1.7 4.2.2 4.1.7 5.4 2.1 5.6 1.4.3 1.7-.4 1.7-3.8s.3-4.1 1.8-3.8c1.3.2 1.8 1.5 2 5.6.3 5 .2 5.3-1.7 4.7-1.7-.5-2.1-.2-2.1 1.4 0 1.1.9 2.5 2 3.1 1.6.9 2 2.1 2 6.1 0 4.3-.3 5-1.6 4.5-.9-.3-1.8-.6-2-.6-.2 0-.4-1.1-.4-2.5s-.8-2.9-2-3.5c-1.7-.9-2-.8-2 1 0 1.1-.6 2-1.3 2-2 0-3.7-2.1-3.7-4.6 0-1.4-.8-2.5-2-2.9-1.4-.4-2-1.5-2-3.6 0-3.3.5-3.4 4-1.4 3.4 1.9 4 1.8 4-.5 0-1.3-1.2-2.6-3.4-3.6-3-1.5-3.5-2.2-4-6.6-.4-2.8-.5-5.2-.2-5.5.2-.2 1.8.3 3.5 1.1 3.9 2.1 4.1 2 4.1-.7 0-1.7-1-2.8-3.5-4-4.5-2.1-4.5-2.1-4.5.4 0 1.6-.4 1.9-2 1.4s-2-.2-2 1.9c0 1.8-.4 2.4-1.5 2-1-.4-1.5 0-1.5 1.4 0 1.1.7 2.2 1.5 2.6 1.2.4 1.5 2.3 1.5 8.5 0 6.8.3 8.2 1.9 9 1.2.7 2 2.6 2.5 5.7.7 5.5.2 6.8-2.5 5.4-1.6-.9-1.9-.7-1.9 1 0 1.1-.7 2-1.6 2-1.2 0-1.4 1-1.2 4.7.3 4.6 2.8 7.6 2.8 3.3 0-1.7.3-1.9 1.9-1 2.8 1.4 3.1 1.3 3.1-1.6 0-1.9.4-2.5 1.5-2 1.2.4 1.5-.4 1.5-3.8 0-2.3.2-4.5.5-4.8.3-.3 2.3.4 4.5 1.4 2.9 1.4 4 2.6 4 4.2 0 2.2 1.7 4.6 3.2 4.6.4 0 .8-.9.8-2 0-2.4 0-2.4 4.5-.3C40.2 101 41 102 41 104c0 2.5 1.6 5 3.2 5 .4 0 .8-1.1.8-2.5 0-3 .1-3 5-.5 3.9 2 4 2.2 4 7 0 5.7-.8 6.1-6 2.8-1.9-1.1-5-2.7-6.7-3.5-3.2-1.3-3.3-1.3-3.3 1.1 0 1.6.7 2.7 2 3.1 1.3.4 2 1.5 2 3.1 0 2.9.1 2.8-5 .8-3.3-1.3-4-2.1-4-4.3 0-2.1-.9-3.1-4.5-5.1-3.2-1.7-4.5-3.1-4.5-4.6 0-1.2-.7-2.7-1.5-3.4-1.3-1.1-1.5-.8-1.5 1.4 0 2.3-.3 2.6-2 2.1-1.6-.5-2-.2-2 1.4 0 2.4-.4 2.5-3.1 1.1-1.7-1-1.9-.7-1.9 3.4 0 3.5.5 4.8 2 5.6 1.7.9 2 .8 2-1s.3-1.9 2-1c1.8.9 2 .8 2-1.5 0-2.8.3-2.9 3.1-1.5 1.1.6 1.9 2.1 1.9 3.5s.8 2.9 2 3.5c1.1.6 2 2.1 2 3.4 0 1.3.7 2.7 1.6 3 2.3.9 2.4.8 2.4-1.3 0-1.7.9-1.4 8.3 2.2 6.2 3.2 8.3 4.7 8.5 6.5.2 1.4 1.7 2.9 4.3 4.2l3.9 2v-2c0-2.5.7-2.5 4.8 0l3.2 2v-2.5c0-1.4-.8-2.9-2-3.5-1.2-.6-2-2.1-2-3.6 0-2.1.4-2.4 2-1.9s2 .2 2-1.5c0-1.1-.7-2.3-1.5-2.6-.9-.4-1.5-1.9-1.5-3.5 0-2.2-.7-3.2-2.5-4.1-2.2-1-2.5-1.7-2.5-6.5 0-3 .3-5.3.8-5.1.4.2 2.4 1.2 4.5 2.1 3 1.4 3.7 2.2 3.7 4.6 0 1.7.6 3.1 1.6 3.5 2.3.9 2.4.8 2.4-1.5 0-1.5.4-1.9 1.6-1.5.9.3 1.8.6 2 .6.2 0 .4 1.3.4 2.9 0 2.4-.3 2.8-2 2.4-1.5-.4-2 0-2 1.7s-.4 2-2 1.5c-3.8-1.2-2.3 2.8 2 5.3l4 2.3v7.4c0 4.1-.2 7.5-.4 7.5s-2-.7-4-1.5c-3.3-1.4-3.6-1.4-3.6.2 0 1 1.7 2.8 4 4.1l3.9 2.2 4.6-2.2c3.3-1.6 4.5-2.8 4.5-4.4 0-1.2.7-2.4 1.5-2.8.9-.3 1.5 0 1.5.9 0 2.1 1.3 1.9 8-1.5 4.1-2.1 6-3.6 6.2-5.1.4-2.6 2.8-3.8 2.8-1.5 0 .9.2 1.6.5 1.6.4 0 36.6-17.9 37.2-18.4.1-.1-.1-3.4-.4-7.3l-.6-7.2-2.8 1.4c-3.6 1.9-3.9 1.9-3.9-.5 0-1.3 1.4-2.7 4-4l4-2-.4-10.3c-.2-5.6-.5-12.5-.5-15.4-.1-4.2-.4-5.1-1.6-4.7-2.3.9-1.9-2.8.5-4.9 1.6-1.4 2-2.9 2-8.7 0-5.2-.3-7-1.3-7-.8 0-1.7.3-2 .7zM125 76.3c0 1.7-1 2.8-3.5 4-4.5 2.1-4.5 2.2-4.5-.6 0-1.6 1-2.8 3.3-4 4.3-2.1 4.7-2.1 4.7.6zm-67 5.8c0 1.5-.5 1.9-1.6 1.5-.9-.3-1.8-.6-2-.6-.2 0-.4-1.1-.4-2.5 0-2.3.2-2.4 2-1.5 1.1.6 2 2 2 3.1zm-15.4-.4c3.6 1.8 3.6 1.8 2.9 6.8-.6 4.8-.4 5.2 2 6.3C50 96 50 96 50 91c0-5.5.4-5.8 4.9-3.3 2.8 1.7 3.1 2.2 3.1 7.1 0 4.9-.2 5.3-2 4.7-1.6-.5-2-.2-2 1.4 0 2.6-.1 2.6-5 .1-2.9-1.5-4-2.7-4-4.3 0-1.2-.9-3-2-4-1.1-.9-2-2.6-2-3.7 0-1-.9-2.4-2-3-2-1.1-2.9-6-1-6 .5 0 2.6.8 4.6 1.7zm69.1 2.7c-.3.8-1.9 1.8-3.6 2.4-2.9 1-3.1.9-3.1-1.2 0-2.8 6.3-6.4 6.8-3.9.2.8.1 2-.1 2.7zM92 83c0 1.1-.2 2-.4 2s-1.1.3-2 .6c-1.1.4-1.6 0-1.6-1.3 0-2.3.8-3.3 2.7-3.3.7 0 1.3.9 1.3 2zm-27.6-.4c1 .4 1.6 1.8 1.6 3.5 0 2.7-.2 2.9-2 1.9-1.2-.6-2-2.1-2-3.5 0-2.7.1-2.8 2.4-1.9zm68.6 4.7c0 1.7-1 2.8-3.5 4-3.5 1.7-3.5 1.6-3.5-.6 0-1.9 3.4-4.8 6.8-5.6.1-.1.2.9.2 2.2zm-38.9 6c-.8.8-1.1.5-1.1-.9 0-2.7 1.4-4.1 1.8-1.9.2.9-.1 2.2-.7 2.8zm42.9-2.4c0 1-.7 2.1-1.5 2.5-1.5.5-2.2-2.4-.8-3.7 1.2-1.3 2.3-.7 2.3 1.2zm-63.2 1.3c.7.7 1.2 2.3 1.2 3.6 0 1.9.4 2.2 2 1.7 1.8-.6 2-.2 2 3.7 0 7-3 8.5-9.4 4.7-2.4-1.4-3.6-2.8-3.6-4.3 0-1.1-.9-2.7-2-3.4-1.8-1.1-2.9-6.2-1.4-6.2 2 0 4.4 2.4 4.4 4.5 0 1.4.8 2.9 2 3.5 1.9 1 2 .8 2-4 0-5.1.6-6 2.8-3.8zM92 98.1c0 1.3-1.1 2.5-3.5 3.5-4.4 1.8-4.5 1.8-4.5-.4 0-1.1 1.4-2.5 3.3-3.5 4.2-2.1 4.7-2.1 4.7.4zm29 .9c0 1.3-1.4 2.7-4 4l-4 2v-2.4c0-1.7.9-3 2.8-4 3.7-2.1 5.2-2 5.2.4zm-17 8c0 1-.9 2.4-2 3-1.7.9-2 .8-2-.8 0-1.8 1.8-4.2 3.2-4.2.4 0 .8.9.8 2zm28.8 1.2c-.4 2.7-2.8 3.6-2.8 1 0-2 .8-3.2 2.2-3.2.5 0 .8 1 .6 2.2zM96 111.3c0 1.7-1 2.8-3.5 4-4.5 2.1-4.5 2.2-4.5-.6 0-1.6 1-2.8 3.3-4 4.3-2.1 4.7-2.1 4.7.6zm2.8 5.8c-2.1 1.3-2.8 1.1-2.8-1.1 0-1 .8-2.3 1.8-2.9 1.4-.8 1.8-.6 2 1.1.2 1.1-.2 2.5-1 2.9zm22-2.9c-.2 1.3-1.1 2.4-2 2.6-2.1.4-2.4-1.8-.6-3.6 1.9-1.9 3-1.4 2.6 1zm-18 5.9c-2.1 1.3-2.8 1.1-2.8-1.1 0-1 .8-2.3 1.8-2.9 1.4-.8 1.8-.6 2 1.1.2 1.1-.2 2.5-1 2.9zm-50.4 2.5c1 .4 1.6 1.8 1.6 3.6 0 2.3-.4 2.9-1.6 2.4-.9-.3-1.8-.6-2-.6-.2 0-.4-1.4-.4-3 0-3.2.1-3.3 2.4-2.4zM92 134c0 1-.9 2.4-2 3-1.7.9-2 .8-2-1.3 0-2.7.7-3.7 2.7-3.7.7 0 1.3.9 1.3 2zM12 49.1c0 1.6-.4 1.9-2 1.4-1.5-.5-2-.2-2 1.2 0 1.9 1.8 4.3 3.2 4.3.4 0 .8-.9.8-2.1 0-1.6.4-1.9 2-1.4s2 .2 2-1.8c0-1.4-.7-2.8-1.6-3.1-2.3-.9-2.4-.8-2.4 1.5z"/><path d="M33 105.3c0 1.4 2 3.7 3.2 3.7 1.5 0 .8-3.8-.8-4.4-2.2-.8-2.4-.8-2.4.7z"/></svg>